<?xml version="1.0" encoding="UTF-8"?>
<svg id="Layer_2" data-name="Layer 2" xmlns="http://www.w3.org/2000/svg" viewBox="0 0 266.89 75.23">
  <defs>
    <style>
      .cls-1 {
        fill: #231f20;
      }

      .cls-2 {
        fill: #06cdef;
      }

      .cls-3 {
        fill: #042d87;
      }

      .cls-4 {
        fill: #0d54d1;
      }
    </style>
  </defs>
  <g id="Layer_1" data-name="Layer 1">
    <g>
      <path class="cls-1" d="M257.05,64.31c0-2.78,2.18-4.97,4.92-4.97s4.92,2.21,4.92,4.97-2.18,4.97-4.92,4.97-4.92-2.18-4.92-4.97ZM265.73,64.31c0-2.26-1.56-3.89-3.79-3.89s-3.72,1.63-3.72,3.89,1.56,3.89,3.72,3.89,3.79-1.63,3.79-3.89ZM260.24,62.03h2.04c.96,0,1.54.58,1.54,1.44,0,.53-.29.98-.79,1.25l1.06,1.82h-1.25l-.84-1.58h-.62v1.58h-1.13v-4.51ZM261.37,62.92v1.22h.67c.38,0,.65-.24.65-.62s-.22-.6-.65-.6h-.67Z"/>
      <path id="T" d="M140.9,56.38l.45,11.45c-2.27.91-6.28,1.65-9.82,1.65-10.53,0-15.99-5.01-15.99-14.81v-16.73h-7.17v-11.27h7.28v-9.64l11.45-6.73h3.36v16.37h10.65v11.27h-10.65v13.07c0,4.45,1.54,5.9,5.55,5.9,1.36,0,2.63-.36,4.1-.91l.8.38Z"/>
      <path id="I" d="M146,10.19c0-4.63,3.63-7.91,8.82-7.91s8.82,3.27,8.82,8-3.63,7.91-8.82,7.91-8.82-3.25-8.82-8ZM147.27,67.74V26.65h15.01v41.09h-15.01Z"/>
      <path id="N" d="M170.57,26.65h14.63v6.46c3.63-5.46,8.29-8.17,14.1-8.17,9,0,14.54,5.81,14.54,16.28v26.55h-15.01v-21.92c0-6.19-1.92-8.37-5.81-8.37-4.37,0-7.46,3.92-7.46,10.36v19.91h-15.01l.02-41.09Z"/>
      <path id="T-2" data-name="T" d="M249.54,56.38l.45,11.45c-2.27.91-6.28,1.65-9.82,1.65-10.53,0-15.99-5.01-15.99-14.81v-16.73h-7.17v-11.27h7.28v-9.64l11.45-6.73h3.36v16.37h10.65v11.27h-10.65v13.07c0,4.45,1.54,5.9,5.55,5.9,1.36,0,2.63-.36,4.1-.91l.8.38Z"/>
      <path id="Blue_1" data-name="Blue 1" class="cls-3" d="M54.83,20.4V2.92c0-1.6-1.31-2.92-2.92-2.92h-31C9.35,0,0,9.35,0,20.91v29.35c0,2.52,2.03,4.54,4.54,4.54h46.79c1.93,0,3.5-1.57,3.5-3.5v-30.91Z"/>
      <path id="Blue_3" data-name="Blue 3" class="cls-2" d="M54.83,20.4h-30.49c-1.93,0-3.5,1.57-3.5,3.5v48.24c0,1.71,1.38,3.1,3.1,3.1h30.8c11.56,0,20.91-9.35,20.91-20.91v-29.69c0-2.34-1.89-4.23-4.23-4.23h-16.59Z"/>
      <path id="Blue_2" data-name="Blue 2" class="cls-4" d="M54.83,20.4h-30.56c-1.89,0-3.43,1.54-3.43,3.43v30.98h30.53c1.89,0,3.43-1.54,3.43-3.43v-30.98h.02Z"/>
    </g>
  </g>
</svg>