<?xml version="1.0" encoding="utf-8"?>
<!-- Generator: Adobe Illustrator 26.5.0, SVG Export Plug-In . SVG Version: 6.00 Build 0)  -->
<svg version="1.1" id="Layer_2_00000163046167039720200810000016647964423093992383_"
	 xmlns="http://www.w3.org/2000/svg" xmlns:xlink="http://www.w3.org/1999/xlink" x="0px" y="0px" viewBox="0 0 1122.5 337.8"
	 style="enable-background:new 0 0 1122.5 337.8;" xml:space="preserve">
<style type="text/css">
	.st0{fill:#042D87;}
	.st1{fill:#06CDEF;}
	.st2{fill:#0D54D1;}
</style>
<g id="Layer_1-2">
	<g>
		<g>
			<path class="st0" d="M246.2,91.6V13.1c0-7.2-5.9-13.1-13.1-13.1H93.9C42,0,0,42,0,93.9v131.8c0,11.3,9.1,20.4,20.4,20.4h73.2
				L116,112.5C116,112.5,246.2,91.6,246.2,91.6z"/>
			<path class="st1" d="M246.2,91.6l-46.7,125.3L93.6,246.2v77.7c0,7.7,6.2,13.9,13.9,13.9h138.3c51.9,0,93.9-42,93.9-93.9V110.6
				c0-10.5-8.5-19-19-19H246.2L246.2,91.6z"/>
			<path class="st2" d="M246.2,91.6H109c-8.5,0-15.4,6.9-15.4,15.4v139.1h137.1c8.5,0,15.4-6.9,15.4-15.4V91.6z"/>
		</g>
		<g>
			<path d="M632.7,253.1l2,51.4c-10.2,4.1-28.2,7.4-44.1,7.4c-47.3,0-71.8-22.5-71.8-66.5v-75.1h-32.2v-50.6h32.7V76.4l51.4-30.2
				h15.1v73.5h47.8v50.6h-47.8V229c0,20,6.9,26.5,24.9,26.5c6.1,0,11.8-1.6,18.4-4.1L632.7,253.1L632.7,253.1z"/>
			<path d="M655.6,45.7c0-20.8,16.3-35.5,39.6-35.5s39.6,14.7,39.6,35.9s-16.3,35.5-39.6,35.5S655.6,67,655.6,45.7L655.6,45.7z
				 M661.3,304.1V119.6h67.4v184.5H661.3z"/>
			<path d="M765.9,119.6h65.7v29c16.3-24.5,37.2-36.7,63.3-36.7c40.4,0,65.3,26.1,65.3,73.1v119.2h-67.4v-98.4
				c0-27.8-8.6-37.6-26.1-37.6c-19.6,0-33.5,17.6-33.5,46.5v89.4h-67.4L765.9,119.6L765.9,119.6z"/>
			<path d="M1120.5,253.1l2,51.4c-10.2,4.1-28.2,7.4-44.1,7.4c-47.3,0-71.8-22.5-71.8-66.5v-75.1h-32.2v-50.6h32.7V76.4l51.4-30.2
				h15.1v73.5h47.8v50.6h-47.8V229c0,20,6.9,26.5,24.9,26.5c6.1,0,11.8-1.6,18.4-4.1L1120.5,253.1L1120.5,253.1z"/>
		</g>
	</g>
</g>
</svg>
